<?xml version="1.0" encoding="UTF-8"?>
<svg xmlns="http://www.w3.org/2000/svg" xmlns:xlink="http://www.w3.org/1999/xlink" width="810pt" height="809.999993pt" viewBox="0 0 810 809.999993" version="1.2">
<defs>
<clipPath id="clip1">
  <path d="M 201 6.878906 L 609 6.878906 L 609 414 L 201 414 Z M 201 6.878906 "/>
</clipPath>
</defs>
<g id="surface1">
<path style=" stroke:none;fill-rule:nonzero;fill:rgb(39.99939%,41.178894%,42.749023%);fill-opacity:1;" d="M 410.769531 810.5625 L 398.59375 804.519531 L 534.144531 533.109375 L 546.324219 539.152344 L 410.769531 810.5625 "/>
<path style=" stroke:none;fill-rule:nonzero;fill:rgb(39.99939%,41.178894%,42.749023%);fill-opacity:1;" d="M 398.75 810.777344 L 236.085938 512.222656 L 247.945312 505.757812 L 410.613281 804.308594 L 398.75 810.777344 "/>
<path style=" stroke:none;fill-rule:nonzero;fill:rgb(39.99939%,41.178894%,42.749023%);fill-opacity:1;" d="M 411.457031 807.542969 L 397.902344 807.542969 L 397.902344 454.707031 L 411.457031 454.707031 L 411.457031 807.542969 "/>
<path style=" stroke:none;fill-rule:nonzero;fill:rgb(36.859131%,78.42865%,65.489197%);fill-opacity:1;" d="M 594.457031 508.988281 C 482.308594 508.988281 391.125 417.652344 391.125 305.429688 C 391.125 193.207031 482.308594 101.871094 594.457031 101.871094 C 706.605469 101.871094 797.785156 193.207031 797.785156 305.429688 C 797.785156 417.652344 706.605469 508.988281 594.457031 508.988281 "/>
<path style=" stroke:none;fill-rule:nonzero;fill:rgb(98.429871%,79.219055%,2.749634%);fill-opacity:1;" d="M 214.90625 495.417969 C 102.808594 495.417969 11.574219 404.082031 11.574219 291.859375 C 11.574219 179.636719 102.808594 88.300781 214.90625 88.300781 C 327.054688 88.300781 418.238281 179.636719 418.238281 291.859375 C 418.238281 404.082031 327.054688 495.417969 214.90625 495.417969 "/>
<path style=" stroke:none;fill-rule:nonzero;fill:rgb(88.62915%,23.139954%,26.269531%);fill-opacity:1;" d="M 364.015625 481.847656 L 391.285156 413.625 L 400.65625 413.785156 C 401.558594 413.785156 402.457031 413.835938 403.355469 413.941406 L 406.003906 413.941406 C 406.90625 413.835938 407.804688 413.785156 408.707031 413.785156 L 418.078125 413.625 L 445.347656 481.847656 L 364.015625 481.847656 "/>
<g clip-path="url(#clip1)" clip-rule="nonzero">
<path style=" stroke:none;fill-rule:nonzero;fill:rgb(94.898987%,32.548523%,23.919678%);fill-opacity:1;" d="M 404.679688 413.996094 C 292.53125 413.996094 201.351562 322.660156 201.351562 210.4375 C 201.351562 98.214844 292.53125 6.878906 404.679688 6.878906 C 516.832031 6.878906 608.011719 98.214844 608.011719 210.4375 C 608.011719 322.660156 516.832031 413.996094 404.679688 413.996094 "/>
</g>
<path style=" stroke:none;fill-rule:nonzero;fill:rgb(98.429871%,79.219055%,2.749634%);fill-opacity:1;" d="M 214.851562 495.738281 L 227.191406 494.996094 C 233.332031 494.675781 239.371094 493.933594 245.40625 493.035156 L 252.128906 491.972656 L 296.238281 536.128906 L 212.628906 563.855469 L 214.851562 495.738281 "/>
<path style=" stroke:none;fill-rule:nonzero;fill:rgb(36.859131%,78.42865%,65.489197%);fill-opacity:1;" d="M 486.011719 549.703125 L 535.363281 500.296875 L 542.882812 502.257812 C 547.332031 503.421875 551.777344 504.429688 556.332031 505.277344 L 567.34375 507.398438 L 567.34375 576.84375 L 486.011719 549.703125 "/>
</g>
</svg>
